<?xml version="1.0" encoding="UTF-8"?><svg id="a" xmlns="http://www.w3.org/2000/svg" viewBox="0 0 83.03 83.03"><defs><style>.b{fill:#498c5e;}</style></defs><g><path d="M41.51,9.74c11.78,0,19.83,2.34,24.64,7.14,4.8,4.8,7.14,12.86,7.14,24.64s-2.34,19.83-7.14,24.64c-4.8,4.8-12.86,7.14-24.64,7.14s-19.84-2.34-24.64-7.14c-4.8-4.8-7.14-12.86-7.14-24.64s2.34-19.84,7.14-24.64c4.8-4.8,12.86-7.14,24.64-7.14m0-9.74C12.8,0,0,12.8,0,41.52s12.8,41.51,41.51,41.51,41.51-12.8,41.51-41.51S70.22,0,41.51,0h0Z"/><path d="M37.09,62.34l-17.85-16.55,2.24-2.42c2.46-2.66,6.62-2.82,9.28-.35l5.58,5.18,17.51-21.24c2.37-2.71,6.5-3,9.23-.65l2.49,2.15-28.48,33.88Z"/></g><path class="b" d="M41.51,9.74c-11.78,0-19.83,2.34-24.64,7.14-4.8,4.8-7.14,12.86-7.14,24.64s2.34,19.83,7.14,24.64c4.8,4.8,12.86,7.14,24.64,7.14s19.84-2.33,24.64-7.14c4.8-4.8,7.14-12.86,7.14-24.64s-2.34-19.84-7.14-24.64c-4.8-4.8-12.86-7.14-24.64-7.14Zm-4.42,52.6l-17.85-16.55,2.24-2.42c2.46-2.66,6.62-2.82,9.28-.35l5.58,5.18,17.51-21.24c2.38-2.71,6.5-3,9.23-.65l2.49,2.15-28.48,33.88Z"/></svg>