<?xml version="1.0" encoding="UTF-8"?><svg id="a" xmlns="http://www.w3.org/2000/svg" viewBox="0 0 83.64 79.42"><defs><style>.b{fill:#eeeac8;}</style></defs><path d="M72.37,70.31c13.22-17.06,11.42-36.81,10.85-41h-26.58c3-5.65,3.71-10.99,2.11-15.88-2.82-8.6-11.83-12.04-12.21-12.18l-3.37-1.25L20.49,33.87H0v45.56H63.35c3.56-2.83,6.5-5.87,8.94-9l.11-.11h-.02Zm-51.57,0H9.11v-27.33h11.7v27.33Zm9.11-34.17L46.39,11.6c1.46,1.08,2.99,2.65,3.66,4.73,.94,2.95,0,6.62-2.82,10.89l-2.65,3.98c-2.06,3.1,.16,7.25,3.88,7.25h25.99c-.39,8.36-3.08,21.42-14.51,31.86H29.92V36.15Z"/><rect class="b" x="9.11" y="42.98" width="11.7" height="27.33"/></svg>