<?xml version="1.0" encoding="UTF-8"?><svg id="a" xmlns="http://www.w3.org/2000/svg" viewBox="0 0 83.64 79.42"><defs><style>.b{fill:#ffc917;}</style></defs><path d="M11.26,9.11C-1.96,26.17-.16,45.92,.41,50.11H26.99c-3,5.65-3.71,10.99-2.11,15.88,2.82,8.6,11.83,12.04,12.21,12.18l3.37,1.25,22.69-33.87h20.49V0H20.29c-3.56,2.83-6.5,5.87-8.94,9l-.11,.11h.02Zm51.57,0h11.7v27.33h-11.7V9.11Zm-9.11,34.17l-16.48,24.55c-1.46-1.08-2.99-2.65-3.66-4.73-.94-2.95,0-6.62,2.82-10.89l2.65-3.98c2.06-3.1-.16-7.25-3.88-7.25H9.17c.39-8.36,3.08-21.42,14.51-31.86h30.04V43.28Z"/><rect class="b" x="62.83" y="9.11" width="11.7" height="27.33"/></svg>