<?xml version="1.0" encoding="UTF-8"?><svg id="a" xmlns="http://www.w3.org/2000/svg" viewBox="0 0 67.54 64.69"><path d="M15.37,0V3.15c0,3.63,2.95,6.58,6.58,6.58h28.97c-.79,1.74-2.03,3.7-3.98,5.65-3.2,3.2-6.34,4.47-9.99,5.94-3.73,1.51-7.96,3.21-11.91,7.17-3.95,3.95-5.66,8.18-7.17,11.91-1.47,3.64-2.74,6.79-5.94,9.99-4.08,4.08-9.02,5.88-11.93,6.64l7.65,7.65c3.52-1.48,7.55-3.8,11.16-7.41,4.6-4.6,6.45-9.18,8.08-13.23,1.33-3.29,2.47-6.12,5.02-8.67,2.55-2.55,5.39-3.7,8.68-5.03,4.04-1.63,8.63-3.48,13.23-8.08,1.62-1.62,2.93-3.28,3.97-4.9v28.21c0,3.63,2.95,6.58,6.58,6.58h3.15V0H15.37Z"/></svg>