<?xml version="1.0" encoding="UTF-8"?><svg id="a" xmlns="http://www.w3.org/2000/svg" viewBox="0 0 90.45 88.01"><defs><style>.b{fill:#ffc917;}</style></defs><g><path d="M67.63,0c-15.14,0-22.81,7.68-22.81,22.82v12.11c-4.62,1.29-7.83,3.87-13.08,3.87-6.99,0-10.36-4.58-18.25-4.58S0,38.8,0,38.8v49.21H63.48V38.8s-3.53-2.88-8.93-4.07v-11.92c0-9.78,3.3-13.08,13.08-13.08s13.08,3.3,13.08,13.08v13.18h9.74v-13.18c0-15.14-7.68-22.82-22.81-22.82Zm-13.89,78.27H9.74V44.58c1.09-.36,2.38-.63,3.76-.63,1.99,0,3.32,.53,5.9,1.62,2.94,1.25,6.98,2.96,12.35,2.96s9.4-1.71,12.35-2.96c2.58-1.09,3.91-1.62,5.9-1.62,1.38,0,2.66,.27,3.76,.63v33.69Z"/><path d="M31.74,55.14h0c2.37,0,4.29,1.92,4.29,4.29v7.94c0,2.37-1.92,4.29-4.29,4.29h0c-2.37,0-4.29-1.92-4.29-4.29v-7.94c0-2.37,1.92-4.29,4.29-4.29Z"/></g><path class="b" d="M49.99,43.96c-1.99,0-3.32,.53-5.9,1.62-2.94,1.25-6.98,2.96-12.35,2.96s-9.4-1.71-12.35-2.96c-2.58-1.09-3.91-1.62-5.9-1.62-1.38,0-2.67,.27-3.76,.63v33.69H53.75V44.59c-1.1-.36-2.38-.63-3.76-.63Zm-13.96,23.41c0,2.36-1.93,4.29-4.29,4.29h0c-2.36,0-4.29-1.93-4.29-4.29v-7.94c0-2.36,1.93-4.29,4.29-4.29h0c2.36,0,4.29,1.93,4.29,4.29v7.94Z"/></svg>