<?xml version="1.0" encoding="UTF-8"?><svg id="a" xmlns="http://www.w3.org/2000/svg" viewBox="0 0 100.81 79.99"><defs><style>.b{fill:#83c793;}</style></defs><g><g><path d="M50.4,0C33.1,0,23.84,11.99,6.43,14.49c-3.7,.53-6.43,3.75-6.43,7.49v3.6c21.79,0,31.09-14.94,50.4-14.94s28.61,14.94,50.41,14.94V14.94C79.02,14.94,69.72,0,50.4,0Z"/><path d="M95.21,45.31c-5.47-1.02-10.5-3.54-14.54-7.34l-3.2-3.01-.04,.04-7.62-7.03c-5.36-4.94-12.38-7.41-19.41-7.41s-14.05,2.47-19.41,7.41l-6.86,6.33-.04-.04-3.96,3.73c-3.99,3.75-8.95,6.26-14.34,7.3-3.4,.66-5.79,3.54-5.79,6.81v3.72c3.83,0,7.58-.52,11.16-1.52l19.84,18.29c5.36,4.94,12.38,7.41,19.41,7.41s14.05-2.47,19.41-7.41l19.84-18.29c3.57,1,7.32,1.52,11.15,1.52v-3.91c0-3.16-2.31-5.97-5.6-6.59Zm-32.35,19.73c-3.28,3.03-7.71,4.69-12.45,4.69s-9.17-1.67-12.45-4.69l-16.5-15.27c2.2-1.37,4.27-2.95,6.17-4.74l.38-.36,9.95-9.17c3.28-3.03,7.71-4.69,12.45-4.69s9.17,1.67,12.45,4.69l10.32,9.52h0c1.91,1.8,3.98,3.38,6.17,4.75l-16.5,15.27Z"/></g><path d="M62.52,44.68c-.24,.94-.85,1.89-1.84,2.88-2.61,2.61-4.94,2.61-7.56,0-2.61-2.61-2.61-4.94,0-7.56,.99-.99,1.94-1.6,2.88-1.84-4.96-3.17-9.64-2.19-14.78,2.94-6.35,6.35-6.35,12.01,0,18.36,6.35,6.35,12.01,6.35,18.35,0,5.13-5.13,6.11-9.82,2.94-14.78Z"/></g><path class="b" d="M50.4,69.73c4.75,0,9.17-1.67,12.45-4.69l16.5-15.27c-2.2-1.37-4.27-2.95-6.17-4.75h0l-10.32-9.52c-3.28-3.03-7.71-4.69-12.45-4.69s-9.17,1.67-12.45,4.69l-9.95,9.17-.38,.36c-1.9,1.79-3.97,3.37-6.17,4.74l16.5,15.27c3.28,3.03,7.71,4.69,12.45,4.69Zm-9.18-28.64c5.13-5.13,9.82-6.11,14.78-2.94-.94,.24-1.89,.85-2.88,1.84-2.61,2.61-2.61,4.94,0,7.56,2.61,2.61,4.94,2.61,7.55,0,.99-.99,1.6-1.94,1.84-2.88,3.17,4.96,2.19,9.64-2.94,14.78-6.35,6.35-12.01,6.35-18.35,0-6.35-6.35-6.35-12.01,0-18.36Z"/></svg>