<?xml version="1.0" encoding="UTF-8"?><svg id="a" xmlns="http://www.w3.org/2000/svg" viewBox="0 0 89.01 90.43"><defs><style>.b{fill:#ffc917;}</style></defs><path d="M89.01,64.28c0-3.77-2.04-7.29-5.3-9.17l-.35-.2v-10.4c-.02-14.99-8.8-28.78-22.37-35.14l-.33-.16-.06-.36C59.74,3.73,55.35,0,50.15,0h-11.3c-5.2,0-9.59,3.73-10.45,8.86l-.06,.36-.33,.16C14.45,15.73,5.67,29.52,5.65,44.51v10.4l-.35,.2C2.04,56.99,0,60.51,0,64.28v16.5c11.03,0,16.56,2.31,22.42,4.75,5.78,2.41,11.75,4.9,22.08,4.9s16.41-2.5,22.26-4.92c5.88-2.43,11.43-4.73,22.25-4.73v-16.5Zm-28.2-11.57c1.8-4.32,1.8-9.27,0-13.59l-.05-.13V20.51l1.11,.83c7.25,5.44,11.58,14.09,11.58,23.16v9.17h-13.04l.4-.96ZM38.16,9.91h12.69V29.42l-.91-.3c-1.76-.57-3.59-.86-5.43-.86s-3.68,.29-5.43,.86l-.91,.3V9.91Zm6.35,28.25c4.28,0,7.76,3.48,7.76,7.76s-3.48,7.76-7.76,7.76-7.76-3.48-7.76-7.76,3.48-7.76,7.76-7.76Zm-28.94,6.35c0-9.06,4.33-17.72,11.58-23.16l1.11-.83v18.48l-.05,.13c-1.8,4.32-1.8,9.27,0,13.59l.4,.96H15.56v-9.17Zm47.51,32.08c-5.43,2.25-10.12,4.19-18.57,4.19s-13.02-1.93-18.37-4.16c-4.38-1.83-9.19-3.82-16.23-4.83v-8.21H79.1v8.22c-6.89,1.01-11.67,2.98-16.03,4.78Z"/><g><path class="b" d="M44.5,28.25c1.85,0,3.68,.29,5.43,.86l.91,.3V9.91h-12.69V29.42l.91-.3c1.76-.57,3.59-.86,5.43-.86Z"/><path class="b" d="M73.45,44.5c0-9.06-4.33-17.72-11.58-23.16l-1.11-.83v18.48l.05,.13c1.8,4.32,1.8,9.27,0,13.59l-.4,.96h13.04v-9.17Z"/><path class="b" d="M28.2,52.71c-1.8-4.32-1.8-9.27,0-13.59l.05-.13V20.52l-1.11,.83c-7.25,5.44-11.58,14.09-11.58,23.16v9.17h13.04l-.4-.96Z"/><path class="b" d="M9.91,71.79c7.04,1.01,11.85,3,16.23,4.83,5.35,2.23,9.97,4.16,18.37,4.16s13.14-1.94,18.57-4.19c4.36-1.8,9.14-3.77,16.03-4.78v-8.22H9.91v8.21Z"/></g></svg>