<?xml version="1.0" encoding="UTF-8"?><svg id="a" xmlns="http://www.w3.org/2000/svg" viewBox="0 0 119.64 86.72"><defs><style>.b{fill:#ffc917;}</style></defs><g><path d="M29.7,29.73v-5.17H0v10.43c6.42,0,9.16,3.73,14.85,3.73s8.43-3.73,14.85-3.73v-5.26Z"/><path d="M88.34,77.5h-3.89v-15.36c-2.76-8.06-10.36-14.23-19.77-15.84V16.31c6.94-1.56,11.8-5.94,20.98-5.94,11.18,0,19.12,6.49,19.12,6.49V6.49S96.84,0,85.67,0s-15.95,6.49-25.85,6.49S45.14,0,33.97,0,14.85,6.49,14.85,6.49v10.37s7.94-6.49,19.12-6.49c9.18,0,14.05,4.38,20.98,5.94v30c-9.41,1.61-17.01,7.78-19.77,15.84v15.36h-3.89c-3.3,0-5.98,2.68-5.98,5.98v3.24H94.32v-3.24c0-3.3-2.68-5.98-5.98-5.98Zm-43.43-13.48c2.4-5.01,8.32-8.4,14.9-8.4s12.5,3.39,14.9,8.4v13.48h-29.81v-13.48Z"/><path d="M89.94,24.26v10.43c6.42,0,9.16,3.73,14.85,3.73s8.43-3.73,14.85-3.73v-10.43h-29.7Z"/></g><path class="b" d="M59.82,55.62c-6.59,0-12.5,3.39-14.9,8.4v13.48h29.81v-13.48c-2.4-5.01-8.32-8.4-14.9-8.4Z"/></svg>