<?xml version="1.0" encoding="UTF-8"?><svg id="a" xmlns="http://www.w3.org/2000/svg" viewBox="0 0 73.77 87.12"><path d="M71.54,48.01c-2.57-2.57-6.74-2.57-9.31,0l-19.99,19.99c-.42-1.52-.7-3.3-.7-5.36,0-4.52,1.33-7.65,2.86-11.26,1.57-3.7,3.36-7.9,3.36-13.49s-1.78-9.79-3.36-13.49c-1.54-3.62-2.86-6.74-2.86-11.26,0-5.77,2.22-10.54,3.74-13.14h-10.82c-1.44,3.53-2.65,8.02-2.65,13.14,0,6.5,1.93,11.05,3.64,15.07,1.39,3.26,2.58,6.08,2.58,9.69s-1.2,6.43-2.58,9.69c-1.7,4.01-3.64,8.56-3.64,15.07,0,2.3,.25,4.39,.66,6.28L11.54,48.01c-2.57-2.57-6.74-2.57-9.31,0l-2.23,2.23,36.88,36.88,36.88-36.88-2.23-2.23Z"/></svg>