<?xml version="1.0" encoding="UTF-8"?><svg id="a" xmlns="http://www.w3.org/2000/svg" viewBox="0 0 88.09 73.77"><path d="M74.95,30.83c-6.5,0-11.05,1.93-15.07,3.64-3.26,1.39-6.08,2.58-9.69,2.58s-6.43-1.2-9.69-2.58c-4.01-1.7-8.56-3.64-15.07-3.64-2.3,0-4.39,.25-6.28,.66L39.11,11.54c2.57-2.57,2.57-6.74,0-9.31l-2.23-2.23L0,36.88l36.88,36.88,2.23-2.23c2.57-2.57,2.57-6.74,0-9.31l-20.48-20.48c1.79-.67,4.05-1.18,6.81-1.18,4.52,0,7.65,1.33,11.26,2.86,3.7,1.57,7.9,3.36,13.49,3.36s9.79-1.78,13.49-3.36c3.62-1.54,6.74-2.86,11.26-2.86,5.77,0,10.54,2.22,13.14,3.74v-10.82c-3.53-1.44-8.02-2.65-13.14-2.65Z"/></svg>