<?xml version="1.0" encoding="UTF-8"?><svg id="a" xmlns="http://www.w3.org/2000/svg" viewBox="0 0 110.04 86.48"><defs><style>.b{fill:#ffc917;}</style></defs><path d="M13.27,0H1.32C-.3,11.3-3.31,37.49,13.16,58.67c16.34,20.99,35.72,26.61,49.1,27.62,1.7,.13,3.38,.19,5.05,.19,16.15,0,30.64-5.76,37.26-12.03l.49-6.52-3.05-3.92c-1.79-2.3-3.76-4.31-5.89-6.04,6.66-4.24,11.41-8.89,13.92-12.34l-1.08-6.8-3.86-2.81-.28-.21c-3.99-2.96-7.77-4.96-11.3-6.24,3.94-6.6,5.7-13.31,5.8-13.71l-3.17-5.83-4.32-1.44c-1.71-.57-5.41-1.58-10.13-1.58-5.58,0-12.59,1.41-19.44,6.63-6.68,5.08-19.51,10.93-30.4,10.93-1.52,0-3.01-.11-4.44-.36-2.05-.65-4.7-1.01-7.66-1.01-3.74,0-7.98,.58-12.11,1.86C6.67,15.04,12.5,5.27,13.27,0h0ZM54.23,33.37c-3.36,0-6.51-.34-9.28-.91,7.73-1.92,15.89-5.51,23.21-11.08,4.81-3.66,9.71-4.65,13.6-4.65,3.02,0,5.42,.59,6.71,1-1.12,2.9-2.9,6.76-5.38,9.94-4.16,0-7.73,.95-10.6,2.15-6.08,2.55-12.47,3.56-18.26,3.56h0Zm13.09,43.37c-1.42,0-2.86-.05-4.32-.16-11.42-.86-28-5.71-42.15-23.89-4.66-5.98-7.48-12.46-9.12-18.84,2.83-.82,5.31-1.19,7.53-1.19,.89,0,1.75,.06,2.56,.18,0,0,1.76,.3,3.1,.76,2.14,.76,3.99,1.94,5.67,3.41h0l.02,.02c1.94,1.69,3.67,3.75,5.38,5.95,3.58,4.6,13.91,17.87,32.57,17.87,1.54,0,3.13-.09,4.78-.28,.93-.11,1.83-.16,2.71-.16,9.36,0,15.4,5.86,18.29,9.58-5.76,3.44-15.67,6.76-27.02,6.76h0Zm-13.28-33.64c7.72,0,15.5-1.5,22.21-4.31,2.16-.91,4.42-1.36,6.77-1.36,5.01,0,10.4,2.05,15.88,6.1-3.06,2.92-7.45,6.19-12.65,8.88-3.29-1.15-6.76-1.74-10.31-1.74-1.24,0-2.49,.07-3.74,.22-1.28,.15-2.52,.22-3.7,.22-8.6,0-14.83-3.7-19.59-8.24,.66,.06,1.32,.11,1.98,.15,1.05,.06,2.1,.08,3.15,.08h0Z"/><g><path class="b" d="M76.04,60.41c-.87,0-1.78,.05-2.71,.16-1.65,.19-3.24,.28-4.78,.28-18.66,0-28.99-13.28-32.57-17.87-1.71-2.2-3.44-4.26-5.38-5.95l-.02-.02h0c-1.68-1.47-3.53-2.65-5.67-3.41-1.33-.46-3.1-.76-3.1-.76-.81-.12-1.66-.17-2.56-.17-2.21,0-4.7,.37-7.53,1.19,1.64,6.38,4.47,12.85,9.12,18.84,14.15,18.18,30.73,23.03,42.15,23.89,1.46,.11,2.9,.16,4.32,.16,11.34,0,21.25-3.32,27.02-6.76-2.89-3.72-8.94-9.58-18.29-9.58Z"/><path class="b" d="M72.48,29.82c2.87-1.2,6.44-2.14,10.6-2.15,2.48-3.17,4.26-7.03,5.38-9.94-1.28-.4-3.69-1-6.71-1-3.89,0-8.79,.99-13.6,4.65-7.32,5.57-15.48,9.16-23.21,11.08,2.77,.57,5.92,.91,9.28,.91,5.78,0,12.18-1.01,18.26-3.56Z"/><path class="b" d="M76.25,38.79c-6.71,2.81-14.49,4.31-22.21,4.31-1.05,0-2.1-.03-3.15-.08-.67-.04-1.33-.09-1.98-.15,4.76,4.53,11,8.24,19.59,8.24,1.19,0,2.42-.07,3.7-.22,1.26-.15,2.51-.22,3.74-.22,3.55,0,7.02,.59,10.31,1.74,5.2-2.69,9.59-5.96,12.65-8.88-5.49-4.05-10.87-6.1-15.88-6.1-2.35,0-4.61,.45-6.77,1.36Z"/></g></svg>