<?xml version="1.0" encoding="UTF-8"?><svg id="a" xmlns="http://www.w3.org/2000/svg" viewBox="0 0 85.46 85.45"><defs><style>.b{fill:#8ec3e5;}</style></defs><g><path d="M51.75,24.7c-3.99-3.99-10.46-3.99-14.44,0l-8.94,8.94c-3.99,3.99-3.99,10.46,0,14.44l8.94,8.94c3.99,3.99,10.46,3.99,14.44,0l8.94-8.94c3.99-3.99,3.99-10.46,0-14.44l-8.94-8.94Zm-7.23,25.11l-8.94-8.94,8.94-8.94,8.94,8.94-8.94,8.94Z"/><path d="M61.33,3.59C56.04,1.21,50.31,0,44.52,0,21.94,.02,3.66,18.33,3.68,40.9c0,5.74,1.22,11.41,3.56,16.65L0,85.45l27.84-7.3c20.59,9.25,44.78,.06,54.03-20.53,9.25-20.59,.06-44.78-20.53-54.03Zm-1.18,63.67c-4.74,2.8-10.14,4.27-15.64,4.26-5.49,0-10.88-1.49-15.59-4.3l-15.93,5.17,5.17-15.93c-8.61-14.57-3.78-33.37,10.79-41.98s33.37-3.78,41.98,10.79c8.61,14.57,3.78,33.37-10.79,41.98Z"/></g><path class="b" d="M28.96,14.48c-14.57,8.61-19.41,27.41-10.79,41.98l-5.17,15.93,15.93-5.17c4.72,2.81,10.1,4.3,15.59,4.3,5.5,0,10.9-1.47,15.64-4.26,14.57-8.61,19.41-27.41,10.79-41.98C62.33,10.7,43.54,5.87,28.96,14.48Zm31.72,33.6l-8.94,8.94c-3.99,3.99-10.46,3.99-14.44,0l-8.94-8.94c-3.99-3.99-3.99-10.46,0-14.44l8.94-8.94c3.99-3.99,10.46-3.99,14.44,0l8.94,8.94c3.99,3.99,3.99,10.46,0,14.44Z"/></svg>