<?xml version="1.0" encoding="UTF-8"?><svg id="a" xmlns="http://www.w3.org/2000/svg" viewBox="0 0 67.96 113.8"><defs><style>.b{fill:#83c793;}</style></defs><path d="M53.52,100.08c-8.45,0-12.05,4.91-19.53,4.91s-11.09-4.91-19.53-4.91S0,104.99,0,104.99v8.81H67.96v-8.81s-6-4.91-14.45-4.91Z"/><path d="M1.89,56.93c0,18.63,12.84,27.69,29.62,37.6l2.51,1.48,2.49-1.51c16.75-10.17,29.56-19.39,29.56-37.57v-18.93h.02v-8.32s-5.67-4.64-13.65-4.64c-5.93,0-9.33,2.56-13.59,3.87V0h-9.74V28.91c-4.26-1.32-7.66-3.87-13.59-3.87-7.98,0-13.65,4.64-13.65,4.64v8.32h.02v18.93Zm27.22-18.93v18.96c0,3.12,2.53,5.65,5.65,5.65h4.09v-24.61h17.49v18.93c0,9.39-3.31,15.79-22.39,27.71-15.41-9.32-22.32-15.89-22.32-27.71v-18.93H29.11Z"/><path class="b" d="M11.63,38v18.93c0,11.83,6.91,18.4,22.32,27.71,19.08-11.92,22.39-18.33,22.39-27.71v-18.93h-17.49v24.61h-4.09c-3.12,0-5.65-2.53-5.65-5.65v-18.96H11.63Z"/></svg>