<?xml version="1.0" encoding="UTF-8"?><svg id="a" xmlns="http://www.w3.org/2000/svg" viewBox="0 0 75 79.18"><path d="M65.13,69.66h-10.91v-19.16h-9.52v19.16h-10.91v-26.82h-9.52v26.82H13.35v-14.05H3.82v16.26c0,4.03,3.28,7.31,7.32,7.31h56.2c4.03,0,7.32-3.28,7.32-7.31v-29.03h-9.52v26.82Z"/><path d="M41.57,0V2.72c0,3.87,3.14,7,7,7l11.02-.16c-10.08,14.94-15.55,14.09-27.12,10.68-7.89-2.33-14.83-1.78-20.63,1.64C2.61,27.31,.1,38.06,0,38.52l9.49,2.16c.02-.07,1.75-7.19,7.35-10.44,3.38-1.96,7.72-2.18,12.89-.66,14.94,4.41,24.29,3.8,35.62-11.32l-.12,8.29c0,3.87,3.14,7,7,7h2.76V0H41.57Zm23.9,9.49h0Z"/></svg>