<?xml version="1.0" encoding="UTF-8"?><svg id="a" xmlns="http://www.w3.org/2000/svg" viewBox="0 0 93.37 68.4"><defs><style>.b{fill:#eeeac8;}</style></defs><path d="M0,0V68.4H93.37V0H0ZM84.16,9.2v3.8c-8.48,1.42-14.82,6.35-20.5,10.8-5.74,4.49-10.7,8.37-16.98,8.37s-11.24-3.88-16.98-8.37c-5.68-4.45-12.02-9.38-20.5-10.8v-3.8H84.16Zm-48.21,29.74c3.21,1.47,6.72,2.42,10.73,2.42s7.51-.95,10.73-2.42l20.25,20.25H15.71l20.25-20.25Zm-26.75,13.74V22.39c5.51,1.37,10.07,4.93,14.83,8.65,1.27,.99,2.55,1.99,3.86,2.96L9.2,52.69ZM84.16,22.39v30.3l-18.69-18.69c1.31-.97,2.58-1.96,3.85-2.96,4.76-3.72,9.32-7.28,14.83-8.65Zm0,36.8h0Z"/><g><path class="b" d="M84.16,22.39c-5.51,1.37-10.07,4.93-14.83,8.65-1.27,.99-2.55,1.99-3.85,2.96l18.69,18.69V22.39Z"/><path class="b" d="M46.68,41.37c-4,0-7.51-.95-10.73-2.42L15.71,59.19h61.95l-20.25-20.25c-3.21,1.47-6.72,2.42-10.73,2.42Z"/><path class="b" d="M84.16,9.2H9.2v3.8c8.48,1.42,14.82,6.35,20.5,10.8,5.74,4.49,10.7,8.37,16.98,8.37s11.24-3.88,16.98-8.37c5.68-4.45,12.02-9.38,20.5-10.8v-3.8Z"/><path class="b" d="M9.2,52.69l18.69-18.69c-1.31-.97-2.59-1.96-3.86-2.96-4.76-3.72-9.32-7.28-14.83-8.65v30.3Z"/></g></svg>