<?xml version="1.0" encoding="UTF-8"?><svg id="a" xmlns="http://www.w3.org/2000/svg" viewBox="0 0 83.03 83.03"><defs><style>.b{fill:#8ec3e5;}</style></defs><path d="M41.51,9.74c11.78,0,19.83,2.34,24.64,7.14,4.8,4.8,7.14,12.86,7.14,24.64s-2.34,19.83-7.14,24.64c-4.8,4.8-12.86,7.14-24.64,7.14s-19.84-2.34-24.64-7.14c-4.8-4.8-7.14-12.86-7.14-24.64s2.34-19.84,7.14-24.64c4.8-4.8,12.86-7.14,24.64-7.14m0-9.74C12.8,0,0,12.8,0,41.51s12.8,41.51,41.51,41.51,41.51-12.8,41.51-41.51S70.22,0,41.51,0h0Zm16.65,34.28c-.72-2.7-.18-5.88-1.86-7.56-1.68-1.68-4.86-1.14-7.56-1.86-2.16-.58-4.39-2.89-7.23-2.89s-5.07,2.32-7.23,2.89c-2.7,.72-5.87,.18-7.56,1.86-1.68,1.68-1.14,4.86-1.86,7.56-.58,2.16-2.89,4.39-2.89,7.23s2.32,5.07,2.89,7.23c.72,2.7,.18,5.87,1.86,7.56,1.68,1.68,4.86,1.14,7.56,1.86,2.16,.58,4.39,2.89,7.23,2.89s5.07-2.32,7.23-2.89c2.7-.72,5.87-.18,7.56-1.86,1.68-1.68,1.14-4.86,1.86-7.56,.58-2.16,2.89-4.39,2.89-7.23s-2.32-5.07-2.89-7.23Zm-9.77,14.11h0c-1.76,1.76-4.19,2.85-6.88,2.85s-5.12-1.09-6.88-2.85h0c-1.76-1.76-2.85-4.19-2.85-6.88s1.09-5.12,2.85-6.88h0c1.76-1.76,4.19-2.85,6.88-2.85s5.12,1.09,6.88,2.85h0c1.76,1.76,2.85,4.19,2.85,6.88s-1.09,5.12-2.85,6.88Z"/><g><path class="b" d="M41.51,9.74c-11.78,0-19.83,2.34-24.64,7.14-4.8,4.8-7.14,12.86-7.14,24.64s2.34,19.84,7.14,24.64c4.8,4.8,12.86,7.14,24.64,7.14s19.84-2.33,24.64-7.14c4.8-4.8,7.14-12.86,7.14-24.64s-2.34-19.84-7.14-24.64c-4.8-4.8-12.86-7.14-24.64-7.14Zm16.65,39.01c-.72,2.7-.18,5.87-1.86,7.56-1.68,1.68-4.86,1.14-7.56,1.86-2.16,.58-4.39,2.89-7.23,2.89s-5.07-2.32-7.23-2.89c-2.7-.72-5.88-.18-7.56-1.86-1.68-1.68-1.14-4.86-1.86-7.56-.58-2.16-2.89-4.39-2.89-7.23s2.32-5.07,2.89-7.23c.72-2.7,.18-5.88,1.86-7.56,1.68-1.68,4.86-1.14,7.56-1.86,2.16-.58,4.39-2.89,7.23-2.89s5.07,2.32,7.23,2.89c2.7,.72,5.88,.18,7.56,1.87,1.68,1.68,1.14,4.86,1.86,7.56,.58,2.16,2.89,4.39,2.89,7.23s-2.32,5.07-2.89,7.23Z"/><path class="b" d="M48.39,34.64h0c-1.76-1.76-4.19-2.85-6.88-2.85s-5.12,1.09-6.88,2.85h0c-1.76,1.76-2.85,4.19-2.85,6.88s1.09,5.12,2.85,6.88h0c1.76,1.76,4.19,2.85,6.88,2.85s5.12-1.09,6.88-2.85h0c1.76-1.76,2.85-4.19,2.85-6.88s-1.09-5.12-2.85-6.88h0Z"/></g></svg>