<?xml version="1.0" encoding="UTF-8"?><svg id="a" xmlns="http://www.w3.org/2000/svg" viewBox="0 0 87.58 87.61"><defs><style>.b{fill:#2e8aca;}</style></defs><path d="M43.77,87.61c-20.02,0-37.46-13.57-42.41-33C-4.6,31.21,9.59,7.32,32.99,1.36c3.53-.9,7.17-1.36,10.81-1.36,11.74,0,23.18,4.82,31.37,13.24,16.85,17.3,16.49,45.08-.81,61.94-5.49,5.35-12.32,9.18-19.75,11.07-3.56,.91-7.21,1.37-10.84,1.37h0Zm-24.43-20c4.42,4.59,10.02,7.84,16.19,9.41l1.75,.44-.93-1.55c-.64-1.07-1.13-1.92-1.58-2.76-3.17-6.15-5.73-12.66-7.62-19.34l-.2-.7-14.73,3.74,.36,.81c1.65,3.7,3.93,7.04,6.76,9.94h0Zm34.07,8.86c4.15-3.43,3.02-17.08,.52-29.44l-.16-.77-17.48,4.43,.22,.74c3.78,12.72,9.89,25.56,15,25.56,0,0,.5,0,1.01-.12s.89-.4,.89-.4Zm9.66-32.58l.16,.71c1.52,6.76,2.36,13.7,2.52,20.62,0,.54-.03,1.08-.05,1.61-.02,.53-.05,1.06-.05,1.57v1.66l1.43-1.27c.2-.17,.39-.34,.58-.53,6.46-6.26,10.22-15.01,10.31-24.02,.01-1.03-.02-2.09-.11-3.21l-.07-.88-14.71,3.74ZM20.55,18.78c-.2,.18-.4,.35-.59,.54-6.46,6.26-10.22,15.01-10.31,24.02,0,1.07,0,2.17,.15,3.27l.11,.83,14.64-3.74-.16-.71c-1.52-6.76-2.36-13.7-2.52-20.62,0-.54,.03-1.08,.05-1.61,.02-.53,.05-1.06,.05-1.57v-1.66l-1.42,1.26Zm15.58-8.18c-.25,0-.49,.03-.72,.09-5.13,1.3-4.55,15.94-1.69,29.88l.16,.76,17.47-4.43-.22-.74c-3.78-12.72-9.89-25.56-15-25.56Zm15.15,1.14c.54,.9,1.06,1.79,1.59,2.76,3.17,6.15,5.73,12.66,7.62,19.34l.2,.7,14.74-3.8-.36-.8c-1.66-3.71-3.94-7.06-6.79-9.96l-.22-.22h-.01c-4.38-4.44-9.89-7.58-15.94-9.11l-1.75-.44,.93,1.54Z"/><g><path class="b" d="M21.97,19.18v-1.65l-1.42,1.26c-.2,.18-.4,.35-.59,.54-6.46,6.26-10.22,15.01-10.31,24.02,0,1.07,0,2.17,.15,3.27l.11,.83,14.64-3.74-.16-.71c-1.52-6.76-2.36-13.7-2.52-20.62,0-.54,.03-1.08,.05-1.61,.02-.53,.05-1.06,.05-1.57Z"/><path class="b" d="M34.77,73.15c-3.17-6.15-5.73-12.66-7.62-19.34l-.2-.7-14.73,3.74,.36,.81c1.65,3.7,3.93,7.04,6.76,9.93h0c4.42,4.59,10.02,7.85,16.19,9.41l1.75,.45-.93-1.55c-.64-1.07-1.13-1.92-1.58-2.76Z"/><path class="b" d="M65.65,68.4v1.66l1.43-1.27c.2-.17,.39-.34,.58-.53,6.46-6.26,10.22-15.01,10.31-24.02,.01-1.03-.02-2.09-.11-3.21l-.07-.88-14.71,3.74,.16,.71c1.52,6.76,2.36,13.7,2.52,20.62,0,.54-.03,1.08-.05,1.61-.02,.53-.05,1.06-.05,1.57Z"/><path class="b" d="M51.52,76.99s.5,0,1.01-.12c.5-.13,.89-.4,.89-.4,4.15-3.43,3.02-17.08,.52-29.44l-.16-.77-17.48,4.43,.22,.74c3.78,12.72,9.89,25.56,15,25.56Z"/><path class="b" d="M51.35,36.9l-.22-.74c-3.78-12.72-9.89-25.56-15-25.56-.25,0-.49,.03-.72,.09-5.13,1.3-4.55,15.94-1.69,29.88l.16,.76,17.47-4.43Z"/><path class="b" d="M60.69,34.53l14.74-3.8-.36-.81c-1.66-3.71-3.94-7.06-6.79-9.96l-.22-.22h-.01c-4.38-4.44-9.89-7.58-15.94-9.11l-1.75-.44,.93,1.55c.54,.9,1.06,1.79,1.59,2.76,3.17,6.15,5.73,12.66,7.62,19.34l.2,.7Z"/></g></svg>