<?xml version="1.0" encoding="UTF-8"?><svg id="a" xmlns="http://www.w3.org/2000/svg" viewBox="0 0 89.01 85.93"><defs><style>.b{fill:#8ec3e5;}</style></defs><path d="M82.13,51.4l6.88-6.88L44.49,0,0,44.49l6.88,6.88,9.48-9.48v28.97c-5.48,1.54-8.98,4.39-8.98,4.39v10.67s6.56-5.36,15.78-5.36,13.16,5.36,21.33,5.36,12.11-5.36,21.33-5.36,15.78,5.36,15.78,5.36v-10.67s-3.58-2.92-9.17-4.45v-29.1l9.7,9.7Zm-19.43,18.71c-5.16,.73-8.64,3.1-12.91,4.35v-12.94c0-2.33-1.91-4.25-4.25-4.25h-2.1c-2.33,0-4.25,1.91-4.25,4.25v12.94c-4.32-1.26-7.84-3.68-13.1-4.37V32.16L44.49,13.77l18.2,18.2v38.15Z"/><path class="b" d="M62.69,70.12V31.97L44.49,13.77l-18.39,18.39v37.94c5.26,.7,8.78,3.11,13.1,4.37v-12.94c0-2.34,1.91-4.25,4.25-4.25h2.1c2.34,0,4.25,1.91,4.25,4.25v12.94c4.27-1.25,7.75-3.62,12.91-4.35Z"/></svg>