<?xml version="1.0" encoding="UTF-8"?><svg id="a" xmlns="http://www.w3.org/2000/svg" viewBox="0 0 67.96 97.27"><defs><style>.b{fill:#2e8aca;}</style></defs><g><path d="M67.96,97.27v-8.81s-6-4.91-14.45-4.91-12.05,4.91-19.53,4.91-11.09-4.91-19.53-4.91S0,88.46,0,88.46v8.81H67.96Z"/><path d="M33.96,13.45c14.17,14.14,20.08,24.37,20.08,34.26,0,11.06-9,20.05-20.05,20.05s-20.05-9-20.05-20.05c0-9.9,6.07-20.4,20.03-34.26m.03-13.45C16.03,16.41,4.19,31.26,4.19,47.72s13.34,29.79,29.79,29.79,29.79-13.34,29.79-29.79S51.73,16.41,33.98,0h0Z"/></g><path class="b" d="M13.93,47.72c0,11.06,9,20.05,20.05,20.05s20.05-9,20.05-20.05c0-9.89-5.92-20.13-20.08-34.26-13.96,13.86-20.03,24.36-20.03,34.26Z"/></svg>