<?xml version="1.0" encoding="UTF-8"?><svg id="a" xmlns="http://www.w3.org/2000/svg" viewBox="0 0 83.03 83.03"><defs><style>.b{fill:#ffc917;}</style></defs><g><path d="M41.51,0C12.8,0,0,12.8,0,41.52s12.8,41.51,41.51,41.51,41.51-12.8,41.51-41.51S70.22,0,41.51,0Zm24.64,66.15c-4.8,4.8-12.86,7.14-24.64,7.14s-19.84-2.34-24.64-7.14c-4.8-4.8-7.14-12.86-7.14-24.64s2.34-19.84,7.14-24.64c4.8-4.8,12.86-7.14,24.64-7.14s19.83,2.34,24.64,7.14c4.8,4.8,7.14,12.86,7.14,24.64s-2.34,19.83-7.14,24.64Z"/><path d="M49.58,44.92c-.33,2.19-.94,3.08-1.26,3.39-.45,.45-2,1.49-6.8,1.49s-6.36-1.04-6.8-1.49c-.45-.45-1.49-2-1.49-6.8s1.04-6.36,1.49-6.8c.45-.45,2-1.49,6.8-1.49s6.36,1.04,6.8,1.49c.32,.32,.93,1.2,1.26,3.39h9.8c-.83-8.49-4.96-13.04-12.99-14.26v-6.37h-9.74v6.37c-9.04,1.37-13.16,6.97-13.16,17.67s4.11,16.3,13.16,17.67v6.86h9.74v-6.86c8.03-1.22,12.16-5.78,12.99-14.26h-9.8Z"/></g><path class="b" d="M41.51,9.74c-11.78,0-19.84,2.34-24.64,7.14-4.8,4.8-7.14,12.86-7.14,24.64s2.34,19.83,7.14,24.64c4.8,4.8,12.86,7.14,24.64,7.14s19.84-2.33,24.64-7.14c4.8-4.8,7.14-12.86,7.14-24.64s-2.34-19.84-7.14-24.64c-4.8-4.8-12.86-7.14-24.64-7.14Zm-6.8,38.58c.45,.45,2,1.49,6.8,1.49s6.36-1.04,6.8-1.49c.32-.32,.93-1.2,1.26-3.39h9.8c-.83,8.49-4.96,13.04-12.99,14.26v6.86h-9.74v-6.86c-9.04-1.37-13.16-6.97-13.16-17.67s4.11-16.3,13.16-17.67v-6.37h9.74v6.37c8.03,1.22,12.16,5.78,12.99,14.27h-9.8c-.33-2.2-.94-3.08-1.26-3.4-.45-.45-2-1.49-6.8-1.49s-6.36,1.04-6.8,1.49c-.45,.45-1.49,2-1.49,6.8s1.04,6.36,1.49,6.8Z"/></svg>