<?xml version="1.0" encoding="UTF-8"?><svg id="a" xmlns="http://www.w3.org/2000/svg" viewBox="0 0 82.94 82.94"><defs><style>.b{fill:#2e8aca;}</style></defs><g><path d="M41.47,8.78c12.03,0,20.3,2.42,25.29,7.41,4.99,4.99,7.41,13.26,7.41,25.29s-2.42,20.3-7.41,25.29-13.26,7.41-25.29,7.41-20.3-2.42-25.29-7.41c-4.99-4.99-7.41-13.26-7.41-25.29s2.42-20.3,7.41-25.29,13.26-7.41,25.29-7.41m0-8.78C12.79,0,0,12.79,0,41.47s12.79,41.47,41.47,41.47,41.47-12.79,41.47-41.47S70.15,0,41.47,0h0Z"/><path d="M41.47,26.09c5.9,0,9.99,1.09,12.14,3.24,2.15,2.15,3.24,6.24,3.24,12.14s-1.09,9.99-3.24,12.14c-2.15,2.15-6.24,3.24-12.14,3.24s-9.98-1.09-12.14-3.24c-2.15-2.15-3.24-6.24-3.24-12.14s1.09-9.99,3.24-12.14c2.15-2.15,6.24-3.24,12.14-3.24m0-8.78c-16.7,0-24.15,7.45-24.15,24.16s7.45,24.15,24.15,24.15,24.15-7.45,24.15-24.15-7.45-24.16-24.15-24.16h0Z"/><path d="M41.47,48.2c-4.65,0-6.73-2.07-6.73-6.73s2.07-6.73,6.73-6.73,6.73,2.07,6.73,6.73-2.07,6.73-6.73,6.73Z"/></g><g><path class="b" d="M41.47,26.09c-5.9,0-9.98,1.09-12.14,3.24-2.15,2.15-3.24,6.24-3.24,12.14s1.09,9.98,3.24,12.14c2.15,2.15,6.24,3.24,12.14,3.24s9.99-1.09,12.14-3.24c2.15-2.15,3.24-6.24,3.24-12.14s-1.09-9.99-3.24-12.14c-2.15-2.15-6.24-3.24-12.14-3.24Zm0,22.11c-4.65,0-6.73-2.07-6.73-6.73s2.07-6.73,6.73-6.73,6.73,2.07,6.73,6.73-2.07,6.73-6.73,6.73Z"/><path class="b" d="M41.47,8.77c-12.03,0-20.3,2.42-25.29,7.41s-7.41,13.26-7.41,25.29,2.42,20.3,7.41,25.29c4.99,4.99,13.26,7.41,25.29,7.41s20.3-2.42,25.29-7.41c4.99-4.99,7.41-13.26,7.41-25.29s-2.42-20.3-7.41-25.29c-4.99-4.99-13.26-7.41-25.29-7.41Zm0,56.85c-16.7,0-24.15-7.45-24.15-24.15s7.45-24.16,24.15-24.16,24.15,7.45,24.15,24.16-7.45,24.15-24.15,24.15Z"/></g></svg>