<?xml version="1.0" encoding="UTF-8"?><svg id="a" xmlns="http://www.w3.org/2000/svg" viewBox="0 0 73.36 93.32"><defs><style>.b{fill:#498c5e;}</style></defs><path d="M44.08,0H0V44.08c0,16.17,13.11,29.28,29.28,29.28h37.29c-2.07,8.79-6.14,14.26-6.14,19.96h12.93V29.28C73.36,13.11,60.25,0,44.08,0Zm19.54,63.62H29.28c-7.13,0-13.35-3.85-16.77-9.56h22.54c2.8,0,5.07-2.27,5.07-5.07s-2.27-5.07-5.07-5.07H9.74v-8.62h7.84c2.8,0,5.07-2.27,5.07-5.07s-2.27-5.07-5.07-5.07h-7.84V9.74h15.42v7.84c0,2.8,2.27,5.07,5.07,5.07s5.07-2.27,5.07-5.07v-7.84h8.62v25.31c0,2.8,2.27,5.07,5.07,5.07s5.07-2.27,5.07-5.07V12.51c5.71,3.42,9.56,9.64,9.56,16.77V63.62Z"/><path class="b" d="M54.06,12.51v22.54c0,2.8-2.27,5.07-5.07,5.07s-5.07-2.27-5.07-5.07V9.74h-8.62v7.84c0,2.8-2.27,5.07-5.07,5.07s-5.07-2.27-5.07-5.07v-7.84H9.74v15.42h7.84c2.8,0,5.07,2.27,5.07,5.07s-2.27,5.07-5.07,5.07h-7.84v8.62h25.31c2.8,0,5.07,2.27,5.07,5.07s-2.27,5.07-5.07,5.07H12.51c3.42,5.71,9.64,9.56,16.77,9.56H63.62V29.28c0-7.13-3.85-13.36-9.56-16.77Z"/></svg>