<?xml version="1.0" encoding="UTF-8"?><svg id="a" xmlns="http://www.w3.org/2000/svg" viewBox="0 0 83.13 87.09"><defs><style>.b{fill:#83c793;}</style></defs><path d="M5.24,87.09V51.69H0V29.78c0-4.86,3.96-8.82,8.82-8.82h2.72l-.16-.46c-.58-1.64-.88-3.36-.88-5.11,0-4.11,1.59-7.97,4.49-10.87C17.88,1.61,21.74,0,25.85,0c5.92,.01,11.55,2.57,15.46,7.02l.26,.3,.26-.3C45.73,2.57,51.36,.01,57.28,0c1.74,0,3.46,.3,5.1,.88,3.87,1.37,6.98,4.16,8.75,7.87,1.77,3.7,1.99,7.88,.62,11.75l-.16,.46h2.72c4.86,0,8.82,3.96,8.82,8.82v21.92h-5.24v35.4H5.24Zm41.22-9.78h21.65v-25.61h-21.65v25.61Zm-31.43,0h21.65v-25.61H15.02v25.61Zm31.43-35.4h26.89v-11.17h-26.89v11.17Zm-36.67,0h26.89v-11.17H9.78v11.17ZM57.28,9.78c-5.97,0-10.83,4.86-10.83,10.83v.35h10.83c3.08,0,5.59-2.51,5.59-5.59s-2.51-5.59-5.59-5.59Zm-31.43,0c-3.08,0-5.59,2.51-5.59,5.59s2.51,5.59,5.59,5.59h10.83v-.35c0-5.97-4.86-10.83-10.83-10.83Z"/><g><rect class="b" x="15.02" y="51.69" width="21.65" height="25.61"/><rect class="b" x="9.78" y="30.74" width="26.89" height="11.17"/><rect class="b" x="46.46" y="51.69" width="21.65" height="25.61"/><rect class="b" x="46.46" y="30.74" width="26.89" height="11.17"/></g></svg>