<?xml version="1.0" encoding="UTF-8"?><svg id="a" xmlns="http://www.w3.org/2000/svg" viewBox="0 0 87.48 99.1"><defs><style>.b{fill:#eeeac8;}</style></defs><g><path d="M87.48,51.73c0-6.64-4.16-12.29-10.01-14.53v-13.21h0v-6.61C72.85,7.3,59.51,0,43.74,0S14.5,7.15,10,17.38v6.62h0v13.2c-5.85,2.24-10.01,7.9-10.01,14.53,0,7.93,5.94,14.47,13.61,15.44-.29,1.85-.44,3.82-.44,5.92,0,17.5,10,26,30.57,26s30.57-8.51,30.57-26c0-2.1-.15-4.08-.44-5.92,7.67-.97,13.61-7.51,13.61-15.44ZM24.34,19.11c8.38,0,11.96,4.89,19.39,4.89s11.01-4.89,19.39-4.89c1.9,0,3.67,.26,5.28,.65v26.07c0,3.21-.25,6.04-.74,8.56-2.79-2.7-6.47-4.63-11.05-5.83v-12c0-2.58-2.09-4.66-4.66-4.66s-4.66,2.09-4.66,4.66v10.64c-1.15-.06-2.33-.09-3.55-.09s-2.43,.03-3.59,.09v-10.64c0-2.58-2.09-4.66-4.66-4.66s-4.66,2.09-4.66,4.66v12.01c-4.56,1.2-8.23,3.13-11.01,5.82-.48-2.51-.74-5.34-.74-8.56V19.75c1.61-.39,3.38-.65,5.27-.65Zm19.39,70.93c-17.85,0-21.51-6.77-21.51-16.94s3.66-16.94,21.51-16.94,21.51,6.77,21.51,16.94-3.66,16.94-21.51,16.94Z"/><path d="M28.64,67.9v3.35c0,3.68,2.66,6.82,6.3,7.4,2.69,.42,5.61,.63,8.8,.63s6.07-.21,8.74-.62c3.63-.57,6.3-3.72,6.3-7.4v-3.33c-3.71,1.88-8.77,2.84-15.04,2.84s-11.38-.97-15.1-2.87Z"/></g><g><path class="b" d="M68.41,45.82V19.75c-1.61-.39-3.38-.65-5.28-.65-8.38,0-11.96,4.89-19.39,4.89s-11.01-4.89-19.39-4.89c-1.9,0-3.67,.26-5.27,.65v26.07c0,3.21,.25,6.04,.74,8.56,2.78-2.69,6.45-4.62,11.01-5.82v-12.01c0-2.58,2.09-4.66,4.66-4.66s4.66,2.09,4.66,4.66v10.64c1.16-.06,2.36-.09,3.59-.09s2.41,.03,3.55,.09v-10.64c0-2.58,2.09-4.66,4.66-4.66s4.66,2.09,4.66,4.66v12c4.58,1.2,8.26,3.13,11.05,5.83,.48-2.51,.74-5.34,.74-8.56Z"/><path class="b" d="M22.23,73.1c0,10.17,3.66,16.94,21.51,16.94s21.51-6.77,21.51-16.94-3.66-16.94-21.51-16.94-21.51,6.77-21.51,16.94Zm36.55-5.17v3.33c0,3.68-2.67,6.83-6.3,7.4-2.67,.42-5.58,.63-8.74,.63s-6.11-.21-8.8-.63c-3.63-.57-6.3-3.72-6.3-7.4v-3.35c3.72,1.9,8.79,2.87,15.1,2.87s11.33-.96,15.04-2.84Z"/></g></svg>