<?xml version="1.0" encoding="UTF-8"?><svg id="a" xmlns="http://www.w3.org/2000/svg" viewBox="0 0 86.78 86.82"><path d="M43.39,86.82c-6.79,0-12.87-4.3-15.14-10.71-1.43-4.04-1.2-8.4,.65-12.27,1.85-3.87,5.09-6.79,9.13-8.22l.23-.08v-9.51l-.39,.05c-4.04,.5-7.95,1.64-11.62,3.41-6.24,2.95-13.19,4.51-20.09,4.51-.35,0-.69,0-1.04-.01H0v-10.24H5.57c2.62,0,5.24-.24,7.81-.72l.28-.05v-11.71l-.23-.08c-4.59-1.62-8.16-5.19-9.78-9.78C.7,13.06,5.09,3.87,13.44,.92c1.73-.61,3.53-.92,5.35-.92,6.79,0,12.87,4.3,15.14,10.71,1.43,4.04,1.2,8.4-.65,12.27-1.85,3.87-5.09,6.79-9.13,8.22l-.23,.08v8.1l.48-.2c5.68-2.4,11.69-3.62,17.86-3.62,.37,0,.75,0,1.13,.01,.39,0,.77-.01,1.14-.01,6.17,0,12.18,1.22,17.86,3.62l.48,.2v-8.1l-.23-.08c-4.59-1.62-8.16-5.19-9.78-9.78-2.95-8.35,1.44-17.53,9.78-20.49,1.73-.61,3.53-.92,5.35-.92,6.79,0,12.87,4.3,15.14,10.71,1.43,4.04,1.2,8.4-.65,12.27-1.85,3.87-5.09,6.79-9.13,8.22l-.23,.08v11.71l.28,.05c2.57,.48,5.2,.72,7.81,.72h5.57v10.24h-5.12c-.36,0-.7,.01-1.05,.01-6.9,0-13.85-1.56-20.1-4.52-3.66-1.76-7.57-2.91-11.61-3.41l-.39-.05v9.51l.23,.08c4.59,1.62,8.16,5.19,9.78,9.78,1.43,4.04,1.2,8.4-.65,12.27-1.85,3.87-5.09,6.79-9.13,8.22-1.73,.61-3.53,.92-5.35,.92Zm0-21.89c-3.21,0-5.81,2.61-5.81,5.82s2.61,5.81,5.81,5.81,5.81-2.61,5.81-5.81-2.61-5.82-5.81-5.82ZM67.99,10.26c-3.21,0-5.81,2.61-5.81,5.81s2.61,5.81,5.81,5.81,5.81-2.61,5.81-5.81-2.61-5.81-5.81-5.81Zm-49.2,0c-3.21,0-5.81,2.61-5.81,5.81s2.61,5.81,5.81,5.81,5.81-2.61,5.81-5.81-2.61-5.81-5.81-5.81Z"/></svg>