<?xml version="1.0" encoding="UTF-8"?><svg id="a" xmlns="http://www.w3.org/2000/svg" viewBox="0 0 63.48 88.01"><defs><style>.b{fill:#ffc917;}</style></defs><g><path d="M54.56,34.73v-11.92C54.56,7.68,46.88,0,31.74,0S8.93,7.68,8.93,22.82v11.92c-5.39,1.19-8.93,4.07-8.93,4.07v49.21H63.48V38.8s-3.53-2.88-8.93-4.07ZM31.74,9.74c9.78,0,13.08,3.3,13.08,13.08v12.11c-4.62,1.29-7.83,3.87-13.08,3.87s-8.46-2.59-13.08-3.87v-12.11c0-9.78,3.3-13.08,13.08-13.08Zm22.01,68.54H9.74V44.58c1.09-.36,2.38-.63,3.76-.63,1.99,0,3.32,.53,5.9,1.62,2.94,1.25,6.98,2.96,12.35,2.96s9.4-1.71,12.35-2.96c2.58-1.09,3.91-1.62,5.9-1.62,1.38,0,2.66,.27,3.76,.63v33.69Z"/><path d="M31.74,55.14h0c2.37,0,4.29,1.92,4.29,4.29v7.94c0,2.37-1.92,4.29-4.29,4.29h0c-2.37,0-4.29-1.92-4.29-4.29v-7.94c0-2.37,1.92-4.29,4.29-4.29Z"/></g><path class="b" d="M49.99,43.96c-1.99,0-3.32,.53-5.9,1.62-2.94,1.25-6.98,2.96-12.35,2.96s-9.4-1.71-12.35-2.96c-2.58-1.09-3.9-1.62-5.9-1.62-1.38,0-2.67,.27-3.76,.63v33.69H53.75V44.59c-1.1-.36-2.38-.63-3.76-.63Zm-13.96,23.41c0,2.36-1.93,4.29-4.29,4.29h0c-2.36,0-4.29-1.93-4.29-4.29v-7.94c0-2.36,1.93-4.29,4.29-4.29h0c2.36,0,4.29,1.93,4.29,4.29v7.94Z"/></svg>