<?xml version="1.0" encoding="UTF-8"?><svg id="a" xmlns="http://www.w3.org/2000/svg" viewBox="0 0 67.96 97.27"><defs><style>.b{fill:#83c793;}</style></defs><path d="M33.98,39.2c-6.51,0-9.42-2.9-9.42-9.42s2.91-9.42,9.42-9.42,9.42,2.91,9.42,9.42-2.9,9.42-9.42,9.42Z"/><path d="M67.96,97.27v-8.81s-6-4.91-14.45-4.91-12.05,4.91-19.53,4.91-11.09-4.91-19.53-4.91S0,88.46,0,88.46v8.81H67.96Z"/><path d="M33.98,9.74c11.06,0,20.05,9,20.05,20.05,0,9.9-6.07,20.4-20.03,34.26-14.17-14.14-20.08-24.37-20.08-34.26,0-11.06,9-20.05,20.05-20.05m0-9.74C17.53,0,4.19,13.34,4.19,29.79s12.04,31.3,29.79,47.72c17.95-16.41,29.79-31.26,29.79-47.72S50.43,0,33.98,0h0Z"/><path class="b" d="M34.01,64.05c13.96-13.86,20.03-24.36,20.03-34.26,0-11.06-9-20.05-20.05-20.05S13.93,18.73,13.93,29.79c0,9.89,5.92,20.13,20.08,34.26Zm-.03-43.69c6.51,0,9.42,2.91,9.42,9.42s-2.9,9.42-9.42,9.42-9.42-2.91-9.42-9.42,2.91-9.42,9.42-9.42Z"/></svg>