<?xml version="1.0" encoding="UTF-8"?><svg id="a" xmlns="http://www.w3.org/2000/svg" viewBox="0 0 76.98 76.98"><path d="M32.6,0V2.65c0,3.69,2.99,6.68,6.68,6.68h22.08c-.69,1.38-1.71,2.9-3.23,4.42-2.79,2.79-5.55,3.9-8.74,5.19-3.34,1.35-7.12,2.88-10.68,6.43-3.56,3.56-5.08,7.34-6.43,10.68-1.29,3.2-2.41,5.96-5.19,8.74-3.63,3.63-8.09,5.19-10.42,5.8l-.59,.15,7.38,7.38,.22-.09c3.86-1.63,7.22-3.86,10.01-6.65,4.13-4.13,5.78-8.23,7.24-11.85,1.16-2.88,2.17-5.36,4.38-7.58,2.21-2.21,4.7-3.22,7.58-4.38,3.62-1.46,7.72-3.11,11.85-7.24,1.15-1.15,2.11-2.32,2.93-3.48v20.84c0,3.69,2.99,6.68,6.68,6.68h2.65V0H32.6Z"/><polygon points="67.66 67.65 9.33 67.65 9.33 9.33 22.09 9.33 22.09 0 0 0 0 76.98 76.98 76.98 76.98 54.89 67.66 54.89 67.66 67.65"/></svg>