<?xml version="1.0" encoding="UTF-8"?><svg id="a" xmlns="http://www.w3.org/2000/svg" viewBox="0 0 74.13 90.65"><defs><style>.b{fill:#83c793;}</style></defs><g><path d="M35.93,67.8h-13.74c-2.36,0-4.29,1.93-4.29,4.29s1.93,4.29,4.29,4.29h13.74c2.36,0,4.29-1.93,4.29-4.29s-1.93-4.29-4.29-4.29Z"/><path d="M58.13,24.72V10.64c0-5.88-4.76-10.64-10.64-10.64H10.64C4.76,0,0,4.76,0,10.64V80.01c0,5.88,4.76,10.64,10.64,10.64H47.49c5.88,0,10.64-4.76,10.64-10.64v-14.08c11.01-1.39,15.99-7.9,15.99-20.6s-4.98-19.21-15.99-20.61Zm-9.65,55.29c0,.55-.44,.99-.99,.99H10.64c-.55,0-.99-.44-.99-.99V10.64c0-.43,.28-.79,.66-.92h3.58c3.07,0,6.07,1.27,7.98,3.67,1.68,2.12,4.28,3.48,7.2,3.48s5.51-1.36,7.2-3.48c1.91-2.4,4.91-3.67,7.98-3.67h3.57c.38,.14,.66,.49,.66,.92v14.06c-11.11,1.35-16.14,7.86-16.14,20.62s5.03,19.26,16.14,20.62v14.06Zm2.38-22.05l-11-10.21,1.37-1.47c1.73-1.86,4.64-1.97,6.5-.24l2.64,2.45,8.54-9.77c1.67-1.91,4.58-2.11,6.49-.43l1.51,1.33-16.05,18.35Z"/></g><path class="b" d="M58.91,38.71l-8.54,9.77-2.64-2.45c-1.86-1.73-4.77-1.62-6.5,.24l-1.37,1.47,11,10.21,16.05-18.35-1.51-1.32c-1.91-1.67-4.82-1.48-6.49,.43Z"/></svg>