<?xml version="1.0" encoding="UTF-8"?><svg id="a" xmlns="http://www.w3.org/2000/svg" viewBox="0 0 93.62 100.93"><defs><style>.b{fill:#ffc917;}</style></defs><path d="M72.36,15.99c-12.32,0-21.26,5.26-21.26,12.51v31.32c-1.38-.15-2.82-.23-4.31-.23s-2.9,.08-4.27,.23V12.51C42.52,5.26,33.58,0,21.26,0S0,5.26,0,12.51V60.8c0,7.25,8.94,12.51,21.26,12.51,1.48,0,2.9-.08,4.27-.23v15.33c0,7.25,8.94,12.51,21.26,12.51s21.26-5.26,21.26-12.51v-15.34c1.38,.15,2.82,.23,4.31,.23,12.32,0,21.26-5.26,21.26-12.51V28.49c0-7.25-8.94-12.51-21.26-12.51Zm-12.58,23.12c3.46,1.42,7.75,2.24,12.58,2.24s9.12-.82,12.58-2.23v5.65c-.34,1.08-4.69,3.88-12.58,3.88s-12.24-2.8-12.58-3.88v-5.65Zm12.58-14.43c7.9,0,12.26,2.82,12.58,3.82v.29c-.36,1.08-4.71,3.87-12.58,3.87s-12.26-2.82-12.58-3.82v-.27c.31-1.07,4.67-3.89,12.58-3.89Zm-12.58,20.11s0,.02,0,.03h0v-.03Zm-.41,27.31v.29c-.36,1.08-4.71,3.87-12.58,3.87s-12.26-2.82-12.58-3.82v-.27c.31-1.07,4.67-3.89,12.58-3.89s12.26,2.82,12.58,3.82ZM8.68,39.1c3.46,1.42,7.75,2.23,12.58,2.23s9.12-.82,12.58-2.24v5.65c-.33,1.07-4.69,3.88-12.58,3.88s-12.23-2.8-12.58-3.88v-5.66Zm0-15.99c3.46,1.42,7.75,2.24,12.58,2.24s9.12-.82,12.58-2.23v5.65c-.34,1.08-4.7,3.88-12.58,3.88s-12.25-2.81-12.58-3.88v-5.65Zm12.58-14.43c7.9,0,12.26,2.82,12.58,3.82v.29c-.36,1.08-4.71,3.87-12.58,3.87s-12.26-2.82-12.58-3.89v-.2c.32-1.07,4.68-3.89,12.58-3.89Zm-12.58,4.09s0,.03,0,.07h0v-.07Zm0,16.01s0,.02,0,.05h0v-.05Zm0,16.01s0,.01,0,.02h0v-.02Zm0,16.01v-5.71c3.45,1.42,7.75,2.23,12.58,2.23s9.13-.82,12.58-2.24v5.65c-.32,1.07-4.68,3.89-12.58,3.89s-12.26-2.82-12.58-3.82Zm38.11,31.44c-7.9,0-12.26-2.82-12.58-3.82v-5.71c3.45,1.42,7.75,2.23,12.58,2.23s9.12-.82,12.58-2.24v5.65c-.32,1.07-4.68,3.89-12.58,3.89Zm25.57-27.62c-7.9,0-12.26-2.82-12.58-3.82v-5.71c3.45,1.42,7.75,2.23,12.58,2.23s9.13-.82,12.58-2.24v5.65c-.32,1.07-4.68,3.89-12.58,3.89Z"/><g><path class="b" d="M8.68,44.8v.02h0s0-.01,0-.02Z"/><path class="b" d="M21.26,48.64c7.89,0,12.25-2.81,12.58-3.88v-5.65c-3.46,1.42-7.75,2.24-12.58,2.24s-9.12-.82-12.58-2.23v5.66c.35,1.08,4.7,3.88,12.58,3.88Z"/><path class="b" d="M21.26,57.32c-4.83,0-9.12-.82-12.58-2.23v5.71c.32,1,4.67,3.82,12.58,3.82s12.26-2.82,12.58-3.89v-5.65c-3.46,1.42-7.75,2.24-12.58,2.24Z"/><path class="b" d="M21.26,32.65c7.88,0,12.23-2.8,12.58-3.88v-5.65c-3.46,1.42-7.75,2.23-12.58,2.23s-9.13-.82-12.58-2.24v5.65c.33,1.08,4.69,3.88,12.58,3.88Z"/><path class="b" d="M46.79,76.25c7.87,0,12.22-2.79,12.58-3.87v-.29c-.31-1-4.67-3.82-12.58-3.82s-12.26,2.82-12.58,3.89v.27c.32,1,4.68,3.82,12.58,3.82Z"/><path class="b" d="M21.26,16.67c7.87,0,12.22-2.79,12.58-3.87v-.29c-.31-1-4.67-3.82-12.58-3.82s-12.26,2.82-12.58,3.89v.2c.32,1.07,4.68,3.89,12.58,3.89Z"/><path class="b" d="M8.68,12.78v.07h0s0-.06,0-.07Z"/><path class="b" d="M8.68,28.79v.05h0s0-.03,0-.05Z"/><path class="b" d="M59.78,44.78v.03h0s0-.02,0-.03Z"/><path class="b" d="M72.36,57.32c-4.83,0-9.12-.82-12.58-2.23v5.71c.32,1,4.67,3.82,12.58,3.82s12.26-2.82,12.58-3.89v-5.65c-3.46,1.42-7.75,2.24-12.58,2.24Z"/><path class="b" d="M46.79,84.94c-4.83,0-9.12-.82-12.58-2.23v5.71c.32,1,4.68,3.82,12.58,3.82s12.26-2.82,12.58-3.89v-5.65c-3.46,1.42-7.75,2.24-12.58,2.24Z"/><path class="b" d="M72.36,48.64c7.89,0,12.24-2.8,12.58-3.88v-5.65c-3.46,1.42-7.75,2.23-12.58,2.23s-9.13-.82-12.58-2.24v5.65c.34,1.08,4.7,3.88,12.58,3.88Z"/><path class="b" d="M72.36,32.65c7.87,0,12.22-2.79,12.58-3.87v-.29c-.31-1-4.67-3.82-12.58-3.82s-12.26,2.82-12.58,3.89v.27c.32,1,4.68,3.82,12.58,3.82Z"/></g></svg>