<?xml version="1.0" encoding="UTF-8"?><svg id="a" xmlns="http://www.w3.org/2000/svg" viewBox="0 0 79.89 81.04"><path d="M18.23,32.51C9.27,32.51,1.98,25.22,1.98,16.26S9.27,0,18.23,0s16.26,7.29,16.26,16.26-7.29,16.26-16.26,16.26Zm0-22.99c-3.71,0-6.73,3.02-6.73,6.73s3.02,6.73,6.73,6.73,6.73-3.02,6.73-6.73-3.02-6.73-6.73-6.73Z"/><path d="M61.66,81.04c-8.96,0-16.26-7.29-16.26-16.26s7.29-16.26,16.26-16.26,16.26,7.29,16.26,16.26-7.29,16.26-16.26,16.26Zm0-22.99c-3.71,0-6.73,3.02-6.73,6.73s3.02,6.73,6.73,6.73,6.73-3.02,6.73-6.73-3.02-6.73-6.73-6.73Z"/><path d="M60.37,40.18c-2.1,0-4.07-.82-5.55-2.3l-13.96-13.96,6.74-6.74,8.01,8.01V0h9.52V25.19l8.01-8.01,6.74,6.74-13.97,13.96c-1.49,1.49-3.45,2.3-5.55,2.3Z"/><path d="M14.75,81.04v-25.19l-8.01,8.01L0,57.13l13.97-13.96c1.49-1.49,3.45-2.3,5.55-2.3s4.07,.82,5.55,2.3l13.96,13.96-6.74,6.74-8.01-8.01v25.19H14.75Z"/></svg>