<?xml version="1.0" encoding="UTF-8"?><svg id="a" xmlns="http://www.w3.org/2000/svg" viewBox="0 0 88.09 73.77"><path d="M51.2,0l-2.23,2.23c-2.57,2.57-2.57,6.74,0,9.31l20.48,20.48c-1.79,.67-4.05,1.18-6.81,1.18-4.52,0-7.65-1.33-11.26-2.86-3.7-1.57-7.9-3.36-13.49-3.36s-9.79,1.78-13.49,3.36c-3.62,1.54-6.74,2.86-11.26,2.86-5.77,0-10.54-2.22-13.14-3.74v10.82c3.53,1.44,8.02,2.65,13.14,2.65,6.5,0,11.05-1.93,15.07-3.64,3.26-1.39,6.08-2.58,9.69-2.58s6.43,1.2,9.69,2.58c4.01,1.71,8.56,3.64,15.07,3.64,2.3,0,4.39-.25,6.28-.66l-19.95,19.95c-2.57,2.57-2.57,6.74,0,9.31l2.23,2.23,36.88-36.88L51.2,0Z"/></svg>