<?xml version="1.0" encoding="UTF-8"?><svg id="a" xmlns="http://www.w3.org/2000/svg" viewBox="0 0 67.96 94.63"><defs><style>.b{fill:#eeeac8;}</style></defs><path d="M53.52,80.92c-8.45,0-12.05,4.91-19.53,4.91s-11.09-4.91-19.53-4.91S0,85.82,0,85.82v8.81H67.96v-8.81s-6-4.91-14.45-4.91Z"/><path d="M33.98,75.58l29.54-29.54-.06-.07v-.96h0v-8.4h0V0h-8.47V32.8c-1.26-.27-2.62-.44-4.07-.44-5.55,0-8.69,2.44-12.71,3.63V0h-8.47V35.99c-4.02-1.18-7.16-3.63-12.71-3.63-1.45,0-2.81,.17-4.07,.44V0H4.5V45.98l-.06,.06,29.54,29.54ZM17.03,40.76c7.33,0,10.45,4.26,16.95,4.26s9.62-4.26,16.95-4.26c1.45,0,2.81,.17,4.07,.44v1.82l-14.46,13.78c-1.92-.6-4.16-.95-6.55-.95s-4.62,.34-6.55,.94l-14.47-14.08v-1.51c1.26-.27,2.62-.44,4.07-.44Z"/><path class="b" d="M55,41.2c-1.26-.27-2.62-.44-4.07-.44-7.33,0-10.45,4.26-16.95,4.26s-9.62-4.26-16.95-4.26c-1.45,0-2.81,.17-4.07,.44v1.51l14.47,14.08c1.92-.59,4.16-.94,6.55-.94s4.63,.35,6.55,.95l14.46-13.78v-1.82Z"/></svg>