<?xml version="1.0" encoding="UTF-8"?><svg id="a" xmlns="http://www.w3.org/2000/svg" viewBox="0 0 81.74 81.74"><path d="M40.17,0C17.76,.38,0,19.13,0,41.54v3.16c0,12.14,3.29,24.05,9.49,34.48l2.18-1.27c3.57-2.07,4.96-6.48,3.32-10.27-3.14-7.22-4.77-15.03-4.77-22.95v-3.19c0-16.7,13.1-30.82,29.79-31.28,17.32-.48,31.51,13.43,31.51,30.64v3.67c0,2-1.46,3.79-3.46,3.98-2.29,.22-4.21-1.57-4.21-3.81v-3.83c0-12.7-10.29-22.99-22.99-22.99h-.56c-12.39,0-22.43,10.04-22.43,22.43v4.39c0,11.76,4.16,23.15,11.75,32.13,2.6,3.1,6.43,4.89,10.47,4.9h1.28c7.48-.04,13.53-6.12,13.54-13.6,.01-3.3-1.19-6.48-3.38-8.94-3.58-3.98-5.56-9.14-5.56-14.5v-4.17c0-2.82-2.29-5.11-5.11-5.11h0c-2.82,0-5.11,2.29-5.11,5.11v4.17c0,7.86,2.91,15.45,8.17,21.29,.51,.6,.78,1.36,.77,2.15,0,1.87-1.52,3.38-3.38,3.38h-1.28c-1.03-.01-2.01-.48-2.67-1.28-6.01-7.15-9.29-16.2-9.27-25.54v-4.37c0-6.75,5.46-12.23,12.21-12.24h.56c7.05,0,12.77,5.72,12.77,12.77v3.43c0,7.56,5.81,14.07,13.37,14.43,8.07,.38,14.73-6.05,14.73-14.03v-3.83C81.74,18.07,63.06-.38,40.17,0Z"/></svg>