<?xml version="1.0" encoding="UTF-8"?><svg id="a" xmlns="http://www.w3.org/2000/svg" viewBox="0 0 91.06 108.46"><defs><style>.b{fill:#eeeac8;}</style></defs><path d="M25.29,38.77c-4.56,0-7.8,2.65-7.8,2.65v-8.17s3.24-2.65,7.8-2.65,6.5,2.65,10.54,2.65,5.99-2.65,10.54-2.65,7.8,2.65,7.8,2.65v8.17s-3.24-2.65-7.8-2.65-6.5,2.65-10.54,2.65-5.99-2.65-10.54-2.65Zm10.54,18.33c4.04,0,5.99-2.65,10.54-2.65s7.8,2.65,7.8,2.65v-8.17s-3.24-2.65-7.8-2.65-6.5,2.65-10.54,2.65-5.99-2.65-10.54-2.65-7.8,2.65-7.8,2.65v8.17s3.24-2.65,7.8-2.65,6.5,2.65,10.54,2.65Zm-10.54,4.86c-4.56,0-7.8,2.65-7.8,2.65v8.17s3.24-2.65,7.8-2.65,6.5,2.65,10.54,2.65,5.99-2.65,10.54-2.65v-8.17c-4.56,0-6.5,2.65-10.54,2.65s-5.99-2.65-10.54-2.65Zm65.77,25.61c0,14.45-6.44,20.9-20.9,20.9s-20.23-5.85-20.84-18.85H0V0H50.77l20.44,20.44h0v46.26c13.7,.31,19.85,6.78,19.85,20.87Zm-29.05-19.98V20.44h-11.24V9.2H9.2V80.41H49.94c1.46-6.97,5.38-11.12,12.07-12.83Zm21.84,14.26l-1.51-1.32c-1.91-1.67-4.82-1.48-6.49,.43l-8.54,9.77-2.64-2.45c-1.86-1.73-4.77-1.62-6.5,.24l-1.37,1.47,11,10.21,16.05-18.35Z"/><path class="b" d="M46.96,9.2H9.2V80.41H49.94c1.46-6.97,5.38-11.12,12.07-12.83V20.44h-11.24V9.2h-3.81Zm-.58,60.93c-4.56,0-6.5,2.65-10.54,2.65s-5.99-2.65-10.54-2.65-7.8,2.65-7.8,2.65v-8.17s3.24-2.65,7.8-2.65,6.5,2.65,10.54,2.65,5.99-2.65,10.54-2.65v8.17Zm7.8-13.03s-3.24-2.65-7.8-2.65-6.5,2.65-10.54,2.65-5.99-2.65-10.54-2.65-7.8,2.65-7.8,2.65v-8.17s3.24-2.65,7.8-2.65,6.5,2.65,10.54,2.65,5.99-2.65,10.54-2.65,7.8,2.65,7.8,2.65v8.17Zm0-23.85v8.17s-3.24-2.65-7.8-2.65-6.5,2.65-10.54,2.65-5.99-2.65-10.54-2.65-7.8,2.65-7.8,2.65v-8.17s3.24-2.65,7.8-2.65,6.5,2.65,10.54,2.65,5.99-2.65,10.54-2.65,7.8,2.65,7.8,2.65Z"/></svg>