<?xml version="1.0" encoding="UTF-8"?><svg id="a" xmlns="http://www.w3.org/2000/svg" viewBox="0 0 78.03 79.25"><path d="M35.37,21.95C35.37,6.1,29.91,0,17.68,0S0,6.1,0,21.95c0,8.53,1.58,14.23,4.95,17.68C1.58,43.07,0,48.78,0,57.3c0,15.85,5.45,21.95,17.68,21.95s17.68-6.1,17.68-21.95c0-8.53-1.58-14.23-4.95-17.68,3.36-3.45,4.95-9.15,4.95-17.68Zm-13.34,44.17c0,2.4-1.94,4.34-4.34,4.34s-4.34-1.94-4.34-4.34v-17.63c0-2.4,1.94-4.34,4.34-4.34s4.34,1.94,4.34,4.34v17.63Zm0-35.36c0,2.4-1.94,4.34-4.34,4.34s-4.34-1.94-4.34-4.34V13.13c0-2.4,1.94-4.34,4.34-4.34s4.34,1.94,4.34,4.34V30.76Z"/><path d="M78.03,39.62c0-9.02-1.78-15.5-5.56-19.42,3.78-3.65,5.55-9.81,5.55-18.83h-13.34V11.15c0,2.4-1.94,4.34-4.34,4.34s-4.34-1.94-4.34-4.34V1.37h-13.34c0,9.02,1.78,15.19,5.56,18.84-3.78,3.92-5.56,10.4-5.56,19.42s1.77,15.5,5.55,19.42c-3.78,3.65-5.56,9.81-5.56,18.83h13.34v-9.78c0-2.4,1.94-4.34,4.34-4.34s4.34,1.94,4.34,4.34v9.78h13.34c0-9.02-1.78-15.19-5.55-18.83,3.78-3.92,5.55-10.4,5.55-19.42Zm-13.34,10.75c0,2.4-1.94,4.34-4.34,4.34s-4.34-1.94-4.34-4.34V28.88c0-2.4,1.94-4.34,4.34-4.34s4.34,1.94,4.34,4.34v21.49Z"/></svg>