<?xml version="1.0" encoding="UTF-8"?><svg id="a" xmlns="http://www.w3.org/2000/svg" viewBox="0 0 67.54 64.69"><path d="M64.38,12.53c-3.63,0-6.58,2.95-6.58,6.58v28.21c-1.05-1.62-2.35-3.27-3.97-4.9-4.6-4.6-9.18-6.45-13.23-8.08-3.29-1.33-6.12-2.47-8.68-5.03-2.55-2.55-3.7-5.39-5.02-8.67-1.63-4.04-3.48-8.63-8.08-13.23C15.2,3.8,11.17,1.48,7.65,0L0,7.65c2.91,.76,7.85,2.57,11.93,6.64,3.2,3.2,4.47,6.34,5.94,9.99,1.51,3.73,3.21,7.96,7.17,11.91,3.95,3.95,8.18,5.66,11.91,7.17,3.64,1.47,6.79,2.74,9.99,5.94,1.95,1.95,3.19,3.91,3.98,5.65H21.95c-3.63,0-6.58,2.95-6.58,6.58v3.15h52.16V12.53h-3.15Z"/></svg>