<?xml version="1.0" encoding="UTF-8"?><svg id="a" xmlns="http://www.w3.org/2000/svg" viewBox="0 0 74.22 56.05"><path d="M58.45,0c-9.22,0-13.16,5.36-21.33,5.36S25,0,15.78,0,0,5.36,0,5.36v10.67s6.56-5.36,15.78-5.36,13.16,5.36,21.33,5.36,12.11-5.36,21.33-5.36,15.78,5.36,15.78,5.36V5.36S67.67,0,58.45,0Z"/><path d="M58.45,20.01c-9.22,0-13.16,5.36-21.33,5.36s-12.11-5.36-21.33-5.36S0,25.37,0,25.37v10.67s6.56-5.36,15.78-5.36,13.16,5.36,21.33,5.36,12.11-5.36,21.33-5.36,15.78,5.36,15.78,5.36v-10.67s-6.56-5.36-15.78-5.36Z"/><path d="M58.45,40.02c-9.22,0-13.16,5.36-21.33,5.36s-12.11-5.36-21.33-5.36S0,45.38,0,45.38v10.67s6.56-5.36,15.78-5.36,13.16,5.36,21.33,5.36,12.11-5.36,21.33-5.36,15.78,5.36,15.78,5.36v-10.67s-6.56-5.36-15.78-5.36Z"/></svg>