<?xml version="1.0" encoding="UTF-8"?><svg id="a" xmlns="http://www.w3.org/2000/svg" viewBox="0 0 58.13 90.65"><defs><style>.b{fill:#8ec3e5;}</style></defs><g><path d="M35.93,67.8h-13.74c-2.36,0-4.29,1.93-4.29,4.29s1.93,4.29,4.29,4.29h13.74c2.36,0,4.29-1.93,4.29-4.29s-1.93-4.29-4.29-4.29Z"/><path d="M47.49,0H10.64C4.76,0,0,4.76,0,10.64V80.01c0,5.88,4.76,10.64,10.64,10.64H47.49c5.88,0,10.64-4.76,10.64-10.64V10.64c0-5.88-4.76-10.64-10.64-10.64Zm.99,80.01c0,.55-.44,.99-.99,.99H10.64c-.55,0-.99-.44-.99-.99V10.64c0-.43,.28-.79,.66-.92h3.57c3.07,0,6.07,1.27,7.98,3.67,1.68,2.12,4.28,3.48,7.2,3.48s5.51-1.36,7.2-3.48c1.91-2.4,4.91-3.67,7.98-3.67h3.57c.38,.14,.66,.49,.66,.92V80.01Z"/></g><path class="b" d="M44.24,9.72c-3.07,0-6.07,1.27-7.98,3.67-1.68,2.12-4.28,3.47-7.2,3.47s-5.51-1.36-7.2-3.47c-1.91-2.4-4.91-3.67-7.98-3.67h-3.57c-.38,.14-.66,.49-.66,.92V80.01c0,.55,.44,.99,.99,.99H47.49c.55,0,.99-.44,.99-.99V10.64c0-.43-.28-.79-.66-.92h-3.57Zm-8.31,66.65h-13.74c-2.36,0-4.29-1.93-4.29-4.29s1.93-4.29,4.29-4.29h13.74c2.36,0,4.29,1.93,4.29,4.29s-1.93,4.29-4.29,4.29Z"/></svg>