<?xml version="1.0" encoding="UTF-8"?><svg id="a" xmlns="http://www.w3.org/2000/svg" viewBox="0 0 91.09 71.1"><path d="M45.57,71.1c-5.18,0-7.49-2.31-7.49-7.49s2.31-7.5,7.49-7.5,7.49,2.31,7.49,7.5-2.31,7.49-7.49,7.49Z"/><g><path d="M7.14,28.83C14.07,16.43,27.59,9.65,45.57,9.65s31.43,6.76,38.38,19.1l7.14-6.83C82.13,7.91,65.89,0,45.57,0S8.95,7.93,0,21.98l7.14,6.85Z"/><path d="M45.57,18.75c-14.35,0-25.95,5.65-32.6,15.67l7.13,6.84c4.64-8.2,13.8-12.86,25.47-12.86s20.75,4.62,25.41,12.76l7.13-6.82c-6.66-9.97-18.23-15.59-32.54-15.59Z"/><path d="M64.77,47.09c-3.88-6.39-10.32-9.63-19.21-9.63s-15.4,3.28-19.28,9.74l7.01,6.73,.31,.13c2.02-4.87,5.59-6.95,11.95-6.95s9.92,2.07,11.94,6.93l7.26-6.95Z"/></g></svg>