<?xml version="1.0" encoding="UTF-8"?><svg id="a" xmlns="http://www.w3.org/2000/svg" viewBox="0 0 76.98 78.5"><defs><style>.b{fill:#8ec3e5;}</style></defs><g><polygon points="0 0 0 28.56 9.33 28.56 9.33 9.33 67.66 9.33 67.66 26.44 76.98 26.44 76.98 0 0 0"/><path d="M76.98,31.49c-6.57,7.22-14.46,10.37-23.52,9.36-4.29-.48-8.31-2.37-12.57-4.38-6.2-2.92-13.21-6.22-21.99-5.27-8.06,.88-14.37,4.38-18.9,8.01v39.29H76.98V31.49Zm-32.08,17.19v20.49h-13.11v-26.22c1.62,.67,3.27,1.45,4.98,2.25,2.62,1.23,5.29,2.48,8.13,3.47Zm-35.58-4.24c2.92-1.75,6.46-3.19,10.62-3.64,.87-.09,1.71-.12,2.54-.1v28.47H9.33v-24.73Zm44.89,24.73v-18.57c4.04,.26,8.65-.07,13.44-1.62v20.19h-13.44Z"/></g><g><path class="b" d="M19.95,40.8c-4.16,.45-7.7,1.89-10.62,3.64v24.73h13.16v-28.47c-.83-.02-1.67,0-2.54,.1Z"/><path class="b" d="M36.78,45.21c-1.71-.81-3.36-1.58-4.98-2.25v26.22h13.11v-20.49c-2.84-.99-5.51-2.24-8.13-3.47Z"/><path class="b" d="M54.21,50.6v18.57h13.44v-20.19c-4.79,1.55-9.4,1.88-13.44,1.62Z"/></g></svg>