<?xml version="1.0" encoding="UTF-8"?><svg id="a" xmlns="http://www.w3.org/2000/svg" viewBox="0 0 71.21 89.61"><defs><style>.b{fill:#8ec3e5;}</style></defs><g><path d="M35.83,33.25c-4.04,0-5.99-2.65-10.54-2.65s-7.8,2.65-7.8,2.65v8.17s3.24-2.65,7.8-2.65,6.5,2.65,10.54,2.65,5.99-2.65,10.54-2.65,7.8,2.65,7.8,2.65v-8.17s-3.24-2.65-7.8-2.65-6.5,2.65-10.54,2.65Z"/><path d="M35.83,48.93c-4.04,0-5.99-2.65-10.54-2.65s-7.8,2.65-7.8,2.65v8.17s3.24-2.65,7.8-2.65,6.5,2.65,10.54,2.65,5.99-2.65,10.54-2.65,7.8,2.65,7.8,2.65v-8.17s-3.24-2.65-7.8-2.65-6.5,2.65-10.54,2.65Z"/><path d="M25.29,61.96c-4.56,0-7.8,2.65-7.8,2.65v8.17s3.24-2.65,7.8-2.65,6.5,2.65,10.54,2.65,5.99-2.65,10.54-2.65v-8.17c-4.56,0-6.5,2.65-10.54,2.65s-5.99-2.65-10.54-2.65Z"/><path d="M50.77,0H0V89.61H71.21V20.44h0L50.77,0Zm11.24,80.41H9.2V9.2H50.77v11.24h11.24v59.97Z"/></g><path class="b" d="M46.96,9.2H9.2V80.41H62.01V20.44h-11.24V9.2h-3.81Zm-.58,60.93c-4.56,0-6.5,2.65-10.54,2.65s-5.99-2.65-10.54-2.65-7.8,2.65-7.8,2.65v-8.17s3.24-2.65,7.8-2.65,6.5,2.65,10.54,2.65,5.99-2.65,10.54-2.65v8.17Zm7.8-13.03s-3.24-2.65-7.8-2.65-6.5,2.65-10.54,2.65-5.99-2.65-10.54-2.65-7.8,2.65-7.8,2.65v-8.17s3.24-2.65,7.8-2.65,6.5,2.65,10.54,2.65,5.99-2.65,10.54-2.65,7.8,2.65,7.8,2.65v8.17Zm0-23.85v8.17s-3.24-2.65-7.8-2.65-6.5,2.65-10.54,2.65-5.99-2.65-10.54-2.65-7.8,2.65-7.8,2.65v-8.17s3.24-2.65,7.8-2.65,6.5,2.65,10.54,2.65,5.99-2.65,10.54-2.65,7.8,2.65,7.8,2.65Z"/></svg>